<svg width="56" height="61" viewBox="0 0 56 61" fill="none" xmlns="http://www.w3.org/2000/svg">
<path fill-rule="evenodd" clip-rule="evenodd" d="M21.2214 23.4665C21.3829 23.9206 21.8452 24.1949 22.3212 24.119L35.0874 22.0828C35.5004 22.017 35.8288 21.701 35.9106 21.2909L37.2654 14.4986C37.3875 13.8864 36.925 13.3132 36.3008 13.3032L18.9412 13.0232C18.2435 13.012 17.7491 13.7007 17.9829 14.3581L21.2214 23.4665Z" fill="white"/>
<path fill-rule="evenodd" clip-rule="evenodd" d="M21.8262 31.3593C23.1109 31.3593 24.1523 30.3178 24.1523 29.0331C24.1523 27.7484 23.1109 26.707 21.8262 26.707C20.5415 26.707 19.5 27.7484 19.5 29.0331C19.5 30.3178 20.5415 31.3593 21.8262 31.3593Z" fill="white"/>
<path fill-rule="evenodd" clip-rule="evenodd" d="M33.457 31.3593C34.7417 31.3593 35.7831 30.3178 35.7831 29.0331C35.7831 27.7484 34.7417 26.707 33.457 26.707C32.1723 26.707 31.1308 27.7484 31.1308 29.0331C31.1308 30.3178 32.1723 31.3593 33.457 31.3593Z" fill="white"/>
<path fill-rule="evenodd" clip-rule="evenodd" d="M15 10C16.933 10 18.5 9.77614 18.5 9.5C18.5 9.22386 16.933 9 15 9C13.067 9 11.5 9.22386 11.5 9.5C11.5 9.77614 13.067 10 15 10Z" fill="white"/>
<path fill-rule="evenodd" clip-rule="evenodd" d="M12.4544 8.65147C13.1177 8.55672 14.0175 8.5 15 8.5C15.9825 8.5 16.8823 8.55672 17.5456 8.65147C17.8735 8.69831 18.1649 8.75734 18.3849 8.83167C18.4917 8.86772 18.6118 8.91717 18.7151 8.98926C18.8002 9.04864 19 9.21275 19 9.5C19 9.78725 18.8002 9.95136 18.7151 10.0107C18.6118 10.0828 18.4917 10.1323 18.3849 10.1683C18.1649 10.2427 17.8735 10.3017 17.5456 10.3485C16.8823 10.4433 15.9825 10.5 15 10.5C14.0175 10.5 13.1177 10.4433 12.4544 10.3485C12.1265 10.3017 11.8351 10.2427 11.6151 10.1683C11.5083 10.1323 11.3882 10.0828 11.2849 10.0107C11.1998 9.95136 11 9.78725 11 9.5C11 9.21275 11.1998 9.04864 11.2849 8.98926C11.3882 8.91717 11.5083 8.86772 11.6151 8.83167C11.8351 8.75734 12.1265 8.69831 12.4544 8.65147Z" fill="white"/>
<rect width="16" height="16" rx="8" transform="matrix(1 0.000825538 -0.00128991 0.999999 32 1.5)" fill="#F55123"/>
<path d="M37.6598 12.275L37.6615 10.9322C38.1298 11.2744 38.6765 11.4457 39.3015 11.4462C39.6954 11.4466 40.0015 11.3622 40.2198 11.1931C40.4414 11.024 40.5523 10.7881 40.5527 10.4854C40.5531 10.1729 40.4167 9.93186 40.1435 9.76236C39.8735 9.59287 39.5009 9.50792 39.0257 9.50753L38.3763 9.50699L38.3778 8.32535L38.9784 8.32585C39.8898 8.3266 40.3459 8.02424 40.3467 7.41878C40.3475 6.84912 39.9979 6.564 39.298 6.56342C38.8293 6.56303 38.3733 6.71402 37.9303 7.01639L37.9319 5.75663C38.4237 5.50964 38.9968 5.38641 39.6511 5.38695C40.3672 5.38754 40.9237 5.54914 41.3204 5.87173C41.7204 6.19432 41.92 6.61278 41.9194 7.12711C41.9182 8.04182 41.4536 8.61435 40.5256 8.84471L40.5255 8.86912C41.0202 8.93138 41.4106 9.11236 41.6967 9.41208C41.9828 9.70854 42.1255 10.0732 42.125 10.5062C42.1241 11.1605 41.8842 11.6779 41.4052 12.0583C40.9262 12.4388 40.2651 12.6287 39.422 12.628C38.6994 12.6274 38.112 12.5097 37.6598 12.275Z" fill="white"/>
<path d="M10.0283 54.5H8.54297L5.02637 50.3359C4.89518 50.1794 4.81478 50.0736 4.78516 50.0186H4.75977V54.5H3.69336V45.3975H4.75977V49.6758H4.78516C4.8444 49.5827 4.9248 49.479 5.02637 49.3647L8.42871 45.3975H9.75537L5.85156 49.7646L10.0283 54.5ZM13.8115 54.6523C12.8509 54.6523 12.0828 54.3498 11.5073 53.7446C10.936 53.1353 10.6504 52.3291 10.6504 51.3262C10.6504 50.2344 10.9487 49.3817 11.5454 48.7681C12.1421 48.1545 12.9482 47.8477 13.9639 47.8477C14.9329 47.8477 15.6883 48.146 16.23 48.7427C16.7759 49.3394 17.0488 50.1667 17.0488 51.2246C17.0488 52.2614 16.7547 53.0929 16.1665 53.7192C15.5825 54.3413 14.7975 54.6523 13.8115 54.6523ZM13.8877 48.7236C13.2191 48.7236 12.6901 48.9521 12.3008 49.4092C11.9115 49.862 11.7168 50.4883 11.7168 51.2881C11.7168 52.0583 11.9136 52.6655 12.3071 53.1099C12.7007 53.5542 13.2275 53.7764 13.8877 53.7764C14.5605 53.7764 15.0768 53.5584 15.4365 53.1226C15.8005 52.6867 15.9824 52.0667 15.9824 51.2627C15.9824 50.4502 15.8005 49.8239 15.4365 49.3838C15.0768 48.9437 14.5605 48.7236 13.8877 48.7236ZM19.7783 53.5605H19.7529V57.4897H18.7119V48H19.7529V49.1426H19.7783C20.2904 48.2793 21.0394 47.8477 22.0254 47.8477C22.8633 47.8477 23.5171 48.1396 23.9868 48.7236C24.4565 49.3034 24.6914 50.082 24.6914 51.0596C24.6914 52.1471 24.4269 53.0189 23.8979 53.6748C23.369 54.3265 22.6453 54.6523 21.7271 54.6523C20.8849 54.6523 20.2354 54.2884 19.7783 53.5605ZM19.7529 50.939V51.8467C19.7529 52.3841 19.9264 52.8411 20.2734 53.2178C20.6247 53.5902 21.069 53.7764 21.6064 53.7764C22.237 53.7764 22.73 53.5352 23.0854 53.0527C23.4451 52.5703 23.625 51.8996 23.625 51.0405C23.625 50.3169 23.4578 49.7498 23.1235 49.3394C22.7892 48.9289 22.3364 48.7236 21.7651 48.7236C21.16 48.7236 20.6733 48.9352 20.3052 49.3584C19.937 49.7773 19.7529 50.3042 19.7529 50.939ZM25.8086 54.3159V53.2939C26.3757 53.6113 27.0379 53.77 27.7954 53.77C28.9422 53.77 29.5156 53.4061 29.5156 52.6782C29.5156 51.9588 28.8872 51.5991 27.6304 51.5991H26.9893V50.7168H27.5986C28.7031 50.7168 29.2554 50.374 29.2554 49.6885C29.2554 49.3965 29.1284 49.1637 28.8745 48.9902C28.6206 48.8167 28.2736 48.73 27.8335 48.73C27.203 48.73 26.5703 48.8887 25.9355 49.2061V48.2349C26.6549 47.9725 27.3151 47.8413 27.916 47.8413C29.4987 47.8413 30.29 48.4232 30.29 49.5869C30.29 49.9635 30.1715 50.2894 29.9346 50.5645C29.7018 50.8353 29.3739 51.0151 28.9507 51.104V51.1357C29.4331 51.1738 29.8203 51.3368 30.1123 51.6245C30.4043 51.9123 30.5503 52.2762 30.5503 52.7163C30.5503 53.3088 30.3112 53.7806 29.833 54.1318C29.3548 54.4831 28.6968 54.6587 27.8589 54.6587C26.966 54.6587 26.2826 54.5444 25.8086 54.3159ZM37.6025 54.5H36.6631V49.314C36.57 49.4959 36.4282 49.752 36.2378 50.082L33.2354 54.5H32.1562V48H33.1084V53.1226C33.1592 52.9998 33.2692 52.7904 33.4385 52.4941L36.5234 48H37.6025V54.5ZM45.1055 54.5H44.0645V51.5483H40.751V54.5H39.71V48H40.751V50.666H44.0645V48H45.1055V54.5ZM51.8657 54.5H50.8247V53.4844H50.7993C50.3465 54.263 49.68 54.6523 48.7998 54.6523C48.1523 54.6523 47.6445 54.481 47.2764 54.1382C46.9124 53.7954 46.7305 53.3405 46.7305 52.7734C46.7305 51.5589 47.4456 50.8522 48.876 50.6533L50.8247 50.3804C50.8247 49.2759 50.3783 48.7236 49.4854 48.7236C48.7025 48.7236 47.9958 48.9902 47.3652 49.5234V48.457C48.0042 48.0508 48.7406 47.8477 49.5742 47.8477C51.1019 47.8477 51.8657 48.6559 51.8657 50.2725V54.5ZM50.8247 51.2119L49.2568 51.4277C48.7744 51.4954 48.4105 51.616 48.165 51.7896C47.9196 51.9588 47.7969 52.2614 47.7969 52.6973C47.7969 53.0146 47.909 53.2749 48.1333 53.478C48.3618 53.6769 48.6644 53.7764 49.041 53.7764C49.5573 53.7764 49.9826 53.5965 50.3169 53.2368C50.6554 52.8729 50.8247 52.4137 50.8247 51.8594V51.2119Z" fill="white"/>
</svg>
