<svg width="56" height="56" viewBox="0 0 56 56" fill="none" xmlns="http://www.w3.org/2000/svg">
<path fill-rule="evenodd" clip-rule="evenodd" d="M33.5207 10.2887C33.5207 13.0587 31.4361 15.2066 29.006 15.2066C26.5759 15.2066 24.4912 13.0587 24.4912 10.3122C24.4793 7.60094 26.5878 5.5 29.006 5.5C31.4241 5.5 33.5207 7.55399 33.5207 10.2887ZM19.5 23.9977C19.5 24.9836 20.1433 25.5 21.942 25.5H36.058C37.8567 25.5 38.5 24.9836 38.5 23.9977C38.5 21.1338 34.8429 17.1901 29.006 17.1901C23.1571 17.1901 19.5 21.1338 19.5 23.9977Z" fill="white"/>
<path d="M8.59961 49.5H7.52051V41.3877H2.76611V49.5H1.69336V40.3975H8.59961V49.5ZM11.8877 48.5605H11.8623V52.4897H10.8213V43H11.8623V44.1426H11.8877C12.3997 43.2793 13.1488 42.8477 14.1348 42.8477C14.9727 42.8477 15.6265 43.1396 16.0962 43.7236C16.5659 44.3034 16.8008 45.082 16.8008 46.0596C16.8008 47.1471 16.5363 48.0189 16.0073 48.6748C15.4784 49.3265 14.7547 49.6523 13.8364 49.6523C12.9943 49.6523 12.3447 49.2884 11.8877 48.5605ZM11.8623 45.939V46.8467C11.8623 47.3841 12.0358 47.8411 12.3828 48.2178C12.734 48.5902 13.1784 48.7764 13.7158 48.7764C14.3464 48.7764 14.8394 48.5352 15.1948 48.0527C15.5545 47.5703 15.7344 46.8996 15.7344 46.0405C15.7344 45.3169 15.5672 44.7498 15.2329 44.3394C14.8986 43.9289 14.4458 43.7236 13.8745 43.7236C13.2694 43.7236 12.7827 43.9352 12.4146 44.3584C12.0464 44.7773 11.8623 45.3042 11.8623 45.939ZM21.1807 49.6523C20.2201 49.6523 19.452 49.3498 18.8765 48.7446C18.3052 48.1353 18.0195 47.3291 18.0195 46.3262C18.0195 45.2344 18.3179 44.3817 18.9146 43.7681C19.5112 43.1545 20.3174 42.8477 21.333 42.8477C22.3021 42.8477 23.0575 43.146 23.5991 43.7427C24.145 44.3394 24.418 45.1667 24.418 46.2246C24.418 47.2614 24.1239 48.0929 23.5356 48.7192C22.9517 49.3413 22.1667 49.6523 21.1807 49.6523ZM21.2568 43.7236C20.5882 43.7236 20.0592 43.9521 19.6699 44.4092C19.2806 44.862 19.0859 45.4883 19.0859 46.2881C19.0859 47.0583 19.2827 47.6655 19.6763 48.1099C20.0698 48.5542 20.5967 48.7764 21.2568 48.7764C21.9297 48.7764 22.446 48.5584 22.8057 48.1226C23.1696 47.6867 23.3516 47.0667 23.3516 46.2627C23.3516 45.4502 23.1696 44.8239 22.8057 44.3838C22.446 43.9437 21.9297 43.7236 21.2568 43.7236ZM29.9531 49.6523V52.5596H29.0137V49.6523H28.8105C27.8626 49.6523 27.0967 49.3455 26.5127 48.7319C25.9287 48.1183 25.6367 47.3164 25.6367 46.3262C25.6367 45.2725 25.9308 44.4303 26.519 43.7998C27.1115 43.165 27.8923 42.8477 28.8613 42.8477H29.0137V40.2451H29.9531V42.8477H30.0928C31.0703 42.8477 31.8532 43.1629 32.4414 43.7935C33.0339 44.4198 33.3301 45.264 33.3301 46.3262C33.3301 47.3164 33.0402 48.1183 32.4604 48.7319C31.8807 49.3455 31.119 49.6523 30.1753 49.6523H29.9531ZM29.9531 43.7236V48.7764H30.0928C30.7529 48.7764 31.2798 48.5542 31.6733 48.1099C32.0669 47.6613 32.2637 47.054 32.2637 46.2881C32.2637 45.484 32.069 44.8556 31.6797 44.4028C31.2946 43.95 30.7762 43.7236 30.1245 43.7236H29.9531ZM29.0137 48.7764V43.7236H28.8613C28.2096 43.7236 27.687 43.9521 27.2935 44.4092C26.8999 44.862 26.7031 45.4883 26.7031 46.2881C26.7031 47.0456 26.8999 47.6507 27.2935 48.1035C27.6912 48.5521 28.2223 48.7764 28.8867 48.7764H29.0137ZM40.4521 49.5H39.5127V44.314C39.4196 44.4959 39.2778 44.752 39.0874 45.082L36.085 49.5H35.0059V43H35.958V48.1226C36.0088 47.9998 36.1188 47.7904 36.2881 47.4941L39.373 43H40.4521V49.5ZM47.3013 49.5H46.2666V43.8823H44.7559C44.5824 45.9855 44.284 47.4624 43.8608 48.313C43.4419 49.1636 42.877 49.5889 42.166 49.5889C41.9502 49.5889 41.764 49.5592 41.6074 49.5V48.605C41.7555 48.6812 41.9163 48.7192 42.0898 48.7192C43.0208 48.7192 43.6196 46.8128 43.8862 43H47.3013V49.5ZM49.415 49.5V43H50.4561V45.4946H52.208C52.8724 45.4946 53.3993 45.6681 53.7886 46.0151C54.1821 46.3621 54.3789 46.8467 54.3789 47.4688C54.3789 48.0951 54.1821 48.5902 53.7886 48.9541C53.395 49.318 52.8978 49.5 52.2969 49.5H49.415ZM50.4561 46.3896V48.6113H52.0176C52.8809 48.6113 53.3125 48.2305 53.3125 47.4688C53.3125 46.7493 52.8766 46.3896 52.0049 46.3896H50.4561Z" fill="white"/>
</svg>
